<?xml version="1.0" standalone="no"?>
<!DOCTYPE svg PUBLIC "-//W3C//DTD SVG 20010904//EN"
 "http://www.w3.org/TR/2001/REC-SVG-20010904/DTD/svg10.dtd">
<svg version="1.0" xmlns="http://www.w3.org/2000/svg"
 width="512.000000pt" height="512.000000pt" viewBox="0 0 512.000000 512.000000"
 preserveAspectRatio="xMidYMid meet">

<g transform="translate(0.000000,512.000000) scale(0.100000,-0.100000)"
fill="#000000" stroke="none">
<path d="M1130 5111 c-77 -24 -132 -72 -166 -146 -45 -94 -24 -203 52 -279 52
-53 114 -76 199 -76 l62 0 6 -172 c13 -359 83 -646 233 -948 120 -241 225
-389 441 -618 145 -154 173 -203 173 -312 0 -108 -28 -158 -168 -307 -223
-236 -326 -381 -446 -623 -150 -302 -220 -589 -233 -948 l-6 -172 -62 0 c-85
0 -147 -23 -199 -76 -124 -123 -90 -322 69 -408 l40 -21 1435 0 1435 0 40 21
c159 86 193 285 69 408 -52 53 -114 76 -199 76 l-62 0 -6 172 c-13 359 -83
646 -233 948 -120 242 -223 387 -446 623 -140 149 -168 199 -168 307 0 108 28
158 168 307 223 236 326 381 446 623 150 302 220 589 233 948 l6 172 62 0 c85
0 147 23 199 76 124 123 90 322 -69 408 l-40 21 -1420 2 c-781 1 -1431 -2
-1445 -6z m2851 -190 c40 -40 36 -93 -10 -128 -23 -18 -2799 -18 -2822 0 -46
35 -50 88 -10 128 l29 29 1392 0 1392 0 29 -29z m-311 -408 c0 -319 -75 -650
-209 -928 -109 -226 -212 -372 -407 -576 -198 -209 -228 -268 -228 -449 0
-181 30 -240 228 -449 195 -204 298 -350 407 -576 134 -278 209 -609 209 -927
l0 -98 -1110 0 -1110 0 0 98 c0 318 75 649 209 927 109 227 202 358 421 595
144 156 176 202 205 304 23 79 17 219 -14 297 -32 84 -71 137 -205 278 -195
204 -298 350 -407 576 -134 276 -209 611 -209 927 l0 98 1110 0 1110 0 0 -97z
m301 -4186 c46 -35 50 -88 10 -128 l-29 -29 -1392 0 -1392 0 -29 29 c-40 40
-36 93 10 128 23 18 2799 18 2822 0z"/>
<path d="M2150 3966 c-120 -27 -210 -103 -253 -214 -27 -68 -22 -99 31 -190
79 -138 165 -251 300 -394 141 -150 186 -220 221 -348 12 -41 21 -97 21 -125
0 -94 52 -152 118 -129 36 12 62 66 62 129 0 68 34 184 78 270 30 59 70 104
260 295 289 289 329 349 288 428 -27 53 -61 63 -245 73 -274 14 -432 51 -574
134 -128 76 -208 94 -307 71z m171 -191 c217 -121 377 -167 637 -182 l113 -6
-218 -221 c-158 -159 -228 -238 -253 -283 -19 -34 -37 -62 -40 -62 -3 0 -21
27 -40 61 -19 34 -88 118 -154 187 -138 146 -187 208 -261 328 -50 81 -53 89
-40 112 14 28 48 62 80 79 37 21 128 14 176 -13z"/>
<path d="M2520 2377 c-34 -17 -50 -53 -50 -115 0 -66 20 -107 60 -120 35 -13
56 -8 88 21 19 18 22 30 22 96 -1 79 -9 99 -47 119 -27 15 -42 15 -73 -1z"/>
<path d="M2501 1936 c-42 -44 -41 -167 1 -206 31 -28 83 -26 113 5 22 21 25
33 25 100 0 67 -3 79 -25 100 -33 34 -83 34 -114 1z"/>
<path d="M2285 1530 c-77 -11 -146 -34 -215 -73 -70 -38 -265 -236 -331 -335
-58 -86 -98 -204 -106 -311 -5 -73 -4 -77 22 -101 l27 -25 878 0 878 0 27 25
c26 24 27 28 22 101 -9 108 -48 225 -107 312 -27 41 -103 128 -167 193 -125
126 -186 167 -303 200 -64 19 -522 29 -625 14z m523 -170 c132 -19 225 -85
384 -271 46 -53 100 -154 114 -211 l6 -28 -752 0 -752 0 6 28 c24 99 89 194
233 340 81 81 166 129 256 142 75 11 431 11 505 0z"/>
</g>
</svg>
